<svg width="122" height="25" viewBox="0 0 122 25" fill="none" xmlns="http://www.w3.org/2000/svg">
<g clip-path="url(#clip0_2_2342)">
<path d="M22.0833 10.3574H25.4253C25.7843 10.3584 26.0753 10.6494 26.0753 11.0084V14.3534C26.0753 14.7124 25.7833 15.0044 25.4243 15.0044H22.0773C21.7183 15.0054 21.4283 15.2954 21.4283 15.6554V23.6474C21.4283 24.0064 21.1363 24.2984 20.7773 24.2984H17.4303H16.1313H12.7853H12.1353V24.2924C5.71726 24.2924 0.515259 19.0914 0.515259 12.6754C0.515259 6.26045 5.71726 1.05945 12.1353 1.05945V1.06445H16.1353C16.4943 1.06645 16.7833 1.35745 16.7833 1.71545V5.06145V5.06345C16.7843 5.42145 17.0753 5.71145 17.4343 5.71145H20.7813C21.1353 5.71145 21.4233 5.42845 21.4313 5.07645V5.06845V5.06245V5.05945V1.71345C21.4323 1.35645 21.7223 1.06645 22.0803 1.06445H25.4323C25.7913 1.06645 26.0803 1.35745 26.0803 1.71545V5.06145C26.0803 5.42045 25.7893 5.71145 25.4303 5.71145H22.0833H22.0823C21.7233 5.71145 21.4323 6.00345 21.4323 6.36145V9.70645C21.4323 10.0654 21.7243 10.3574 22.0833 10.3574ZM12.7883 10.3574H16.1353C16.4943 10.3574 16.7863 10.0654 16.7863 9.70645V6.36145C16.7863 6.00245 16.4953 5.71045 16.1363 5.71045H12.7873C12.4293 5.71045 12.1383 6.00145 12.1383 6.36045V9.70745C12.1383 10.0674 12.4293 10.3574 12.7883 10.3574ZM20.7833 15.0044C21.1423 15.0044 21.4333 14.7124 21.4333 14.3534V11.0084C21.4333 10.6494 21.1433 10.3574 20.7843 10.3574H17.4353C17.0763 10.3584 16.7853 10.6494 16.7853 11.0084V14.3534C16.7853 14.7124 17.0773 15.0044 17.4363 15.0044H20.7833ZM117.068 9.65645V15.8294C117.068 16.6214 117.349 16.8774 118.372 16.8774H120.515V19.5324H118.139C115.298 19.5324 114.179 18.4374 114.179 15.9684V9.65645V7.18745V4.20545H117.067V7.18745H120.515V9.65645H117.068ZM41.8473 6.83745C38.0283 6.83745 35.1163 9.63245 35.1163 13.3584C35.1163 17.1094 38.0283 19.8794 41.8473 19.8794C44.9453 19.8794 47.4383 18.1564 48.1363 15.5014L45.4353 14.7564C44.8993 16.4564 43.6423 17.3424 41.8473 17.3424C39.6353 17.3424 38.0053 15.7344 38.0053 13.3584C38.0053 10.9824 39.6353 9.37545 41.8473 9.37545C43.6423 9.37545 44.9223 10.3304 45.4353 11.9604L48.1363 11.2154C47.4383 8.56045 44.9453 6.83745 41.8473 6.83745ZM49.9063 7.18745V14.3614H49.9083C49.9083 17.8094 52.0053 19.8824 55.4293 19.8824C57.2683 19.8824 58.7593 19.3004 59.7613 18.2514H59.8073V19.5324H62.6023V7.18745H59.7133V13.8954C59.7133 15.8754 58.3403 17.2734 56.1733 17.2734C54.0053 17.2734 52.7953 16.0384 52.7953 13.8954V7.18745H49.9063ZM65.1623 7.18845H67.9103V8.37645H67.9563C68.7953 7.49045 69.9833 6.95445 71.4273 6.95445C72.1263 6.95445 72.7323 7.07145 73.4073 7.28145L72.7793 9.91345C72.1273 9.72745 71.6843 9.65645 71.0323 9.65645C69.2383 9.65645 68.0513 10.8674 68.0513 13.3134V19.5324H65.1623V7.18845ZM77.6703 7.18845H74.9223V19.5324H77.8103V13.3134C77.8103 10.8674 78.9983 9.65645 80.7923 9.65645C81.4443 9.65645 81.8873 9.72745 82.5393 9.91345L83.1673 7.28145C82.4923 7.07145 81.8863 6.95445 81.1873 6.95445C79.7433 6.95445 78.5553 7.49045 77.7163 8.37645H77.6703V7.18845ZM83.4233 13.4074C83.4233 9.54145 86.1943 6.83845 90.0613 6.83845C93.9293 6.83845 96.6533 9.70445 96.6533 13.4304V14.2924H86.2883C86.3813 16.2264 87.9423 17.4834 90.2023 17.4834C91.8793 17.4834 93.0913 16.8084 94.2323 15.3874L96.1653 17.1104C94.7913 18.8804 92.8583 19.8824 90.2253 19.8824C86.0093 19.8824 83.4233 17.3194 83.4233 13.4074ZM93.8113 12.1964C93.6493 10.4734 92.1343 9.23845 90.1083 9.23845C88.0813 9.23845 86.5213 10.4724 86.3353 12.1964H93.8113ZM101.568 7.18845H98.7733L98.7713 7.18945V19.5344H101.659V12.8034C101.659 10.7994 103.265 9.42545 105.409 9.42545C107.553 9.42545 108.88 10.6824 108.88 12.7784V19.5334H111.769V12.3364C111.769 9.07445 109.394 6.83845 105.876 6.83845C104.2 6.83845 102.616 7.42045 101.614 8.46845H101.568V7.18845Z" fill="#242424"/>
</g>
<defs>
<clipPath id="clip0_2_2342">
<rect width="121" height="24" fill="white" transform="translate(0.0603027 0.678467)"/>
</clipPath>
</defs>
</svg>
